<?xml version="1.0" standalone="no"?>
<!DOCTYPE svg PUBLIC "-//W3C//DTD SVG 1.1//EN" "http://www.w3.org/Graphics/SVG/1.1/DTD/svg11.dtd">
<svg xmlns="http://www.w3.org/2000/svg" id="Layer_1" version="1.1" viewBox="0 0 46.017 45.176" className="w-20 h-20 absolute right-4 top-4 md:right-8 md:top-8" style="color: #fff" width="46.016998291015625" height="45.17599868774414">
          <defs id="defs1438"/>
          <path id="path1440" fill="none" stroke="currentColor" strokeMiterlimit="10" strokeOpacity="1" strokeWidth="2.918" d="M26.404 10.9s-5.105-8.124-8.383 3.935c-.094.487-.169.98-.243 1.472a56.12 56.12 0 0 0-.417 3.747 46.938 46.938 0 0 0-.13 5.032c.055 1.783.229 3.575.621 5.318.363 1.615.914 3.22 1.833 4.608.511.769 1.147 1.65 2.11 1.842.979.197 1.937-.015 2.772-.537.834-.522 1.445-1.265 1.932-2.078.784-1.314 1.246-2.811 1.569-4.293.511-2.354.685-4.771.73-7.174"/>
          <path id="path1442" fill="none" stroke="currentColor" strokeMiterlimit="10" strokeOpacity="1" strokeWidth="2.918" d="M10.646 19.148A6.7 6.7 0 0 0 9.35 20.3c-.68.773-1.217 1.773-1.073 2.831.229 1.714 1.977 2.832 3.387 3.555 1.52.783 3.263.98 4.942 1.217 1.788.25 3.59.423 5.398.502 2.051.088 4.112.054 6.148-.202 1.902-.241 3.824-.685 5.533-1.566l.094-.05s14.179-7.621-10.9-9.433"/>
          <ellipse id="ellipse1444" cx="34.976" cy="11.063" fill="none" stroke="currentColor" strokeMiterlimit="10" strokeOpacity="1" strokeWidth="2.102" display="inline" rx="2.985" ry="2.846"/>
        </svg>